<?xml version="1.0" ?><!DOCTYPE svg  PUBLIC '-//W3C//DTD SVG 1.1//EN'  'http://www.w3.org/Graphics/SVG/1.1/DTD/svg11.dtd'><svg height="512px" style="enable-background:new 0 0 512 512;" version="1.1" viewBox="0 0 512 512" width="512px" xml:space="preserve" xmlns="http://www.w3.org/2000/svg" xmlns:xlink="http://www.w3.org/1999/xlink"><g id="_x32_7"><g><g><path d="M180.02,269.445c-1.198,0-2.368-0.606-3.029-1.704c-0.974-1.619-0.503-3.718,1.07-4.761     c0.109-0.079,7.629-5.082,17.832-11.656c-0.003,0-0.006-0.003-0.006-0.009c-1.101-1.485-0.861-3.575,0.543-4.778l32.841-28.154     c0.152-1.022,0.755-1.968,1.725-2.532l4.033-2.329c1.583-0.916,3.596-0.473,4.651,1.019c1.055,1.489,0.8,3.532-0.585,4.721     l-4.958,4.254c12.174-6.883,13.575-6.537,14.636-6.276c0.934,0.23,1.85,0.906,2.329,1.743c0.027,0.049,0.058,0.1,0.085,0.148     c2.866-0.991,3.869-0.761,4.715-0.561c1.167,0.272,2.128,0.973,2.705,1.974c0.974,1.686,0.397,3.848-1.292,4.821     c-0.979,0.567-2.122,0.606-3.093,0.215c-1.419,0.315-4.042,1.483-7.583,3.326c-4.542,3.951-13.536,10.355-31.678,21.171     c-16.589,9.897-33.096,18.851-33.26,18.948C181.166,269.306,180.589,269.445,180.02,269.445z" style="fill:#5B8039;"/></g><g><path d="M243.273,488.86c-0.288,0-0.537-0.067-0.861-0.158c-0.895-0.242-1.662-0.831-2.125-1.631     c-0.601-1.037-0.634-1.765-0.203-3.408c-1.14-0.795-1.713-2.189-1.44-3.578l0.988-4.997c-2.483,1.631-3.459,2.044-4.948,1.698     c-0.952-0.213-1.811-0.85-2.302-1.698c-0.191-0.321-0.321-0.667-0.397-1.025c-0.979,0.31-1.589,0.262-2.283,0.098     c-0.94-0.225-1.832-0.886-2.311-1.729c-0.816-1.413-0.558-3.202,0.625-4.324c0.961-0.915,1.95-1.873,2.932-2.838     c-10.446,7.065-12.571,8.296-14.891,7.757c-1.013-0.23-1.895-0.874-2.41-1.777c-0.883-1.522-0.504-3.469,0.885-4.554     c2.456-1.911,4.958-3.888,7.417-5.858l-8.89,5.13c-1.686,0.977-3.848,0.4-4.824-1.291c-1.355-2.342-0.44-4.082,4.172-8.509     c-4.036,2.596-6.059,3.257-7.911,2.868c-1.177-0.242-2.15-0.945-2.738-1.965c-0.627-1.085-0.733-2.086-0.33-3.147     c-9.2,5.343-12.642,6.544-14.719,6.04c-1.07-0.267-1.949-0.915-2.483-1.85c-1.209-2.092-0.594-4.081,1.847-6.67     c-0.728-0.315-1.386-0.88-1.78-1.559c-1.585-2.741,0.37-4.228,3.335-6.489c1.167-0.886,2.714-2.056,4.548-3.42l-23.005,13.28     c-0.815,0.474-1.777,0.601-2.68,0.352c-0.907-0.236-1.677-0.83-2.147-1.643c-0.615-1.062-0.752-2.342-0.4-3.608     c0.055-0.183,0.112-0.382,0.197-0.612c-3.011,1.043-5.276,1.376-6.898,0.994c-1.452-0.334-2.641-1.188-3.341-2.407     c-0.794-1.371-0.949-2.796-0.288-4.428c-1.261,0.134-1.989-0.03-2.58-0.163c-1.425-0.322-2.586-1.146-3.266-2.323     c-0.46-0.794-0.909-2.104-0.445-3.82c0.239-0.886,0.773-1.85,1.613-2.923c-1.465,0.879-2.56,1.516-3.405,1.965l-0.691,0.448     l-0.045-0.066c-1.653,0.825-2.053,0.722-2.748,0.546c-0.791-0.2-1.485-0.667-1.968-1.316c-4.96,2.038-8.751,2.863-11.292,2.287     c-2.207-0.504-3.365-1.802-3.944-2.809c-0.328-0.569-0.482-1.194-0.473-1.807c-5.373,2.898-8.169,3.729-9.916,3.323     c-1.125-0.273-2.053-0.946-2.614-1.917c-0.479-0.836-0.6-1.837-0.327-2.759c0.27-0.934,0.913-1.71,1.771-2.146     c1.535-0.795,3.063-1.583,4.603-2.384c-0.521-0.309-0.958-0.746-1.268-1.279c-0.458-0.782-0.897-2.092-0.424-3.826     c0.251-0.94,0.622-2.293,3.314-5.106l-13.748,7.938c-1.67,0.964-3.812,0.406-4.797-1.25c-0.652-1.085-0.652-2.377-0.112-3.42     c-0.7-0.321-1.322-0.861-1.701-1.517c-0.243-0.424-0.479-0.939-0.652-1.559c-10.088,6.271-12.071,6.78-13.821,6.374     c-1.022-0.236-1.868-0.867-2.389-1.765c-0.51-0.892-0.634-1.929-0.349-2.929c0.458-1.602,1.592-2.954,9.057-7.345     c-2.504,1.056-4.697,1.893-6.619,2.548c-0.703,0.484-1.092,0.745-1.125,0.775c-0.813,0.553-1.825,0.752-2.787,0.534     c-0.073-0.019-0.148-0.036-0.221-0.055c-5.579,1.449-7.984,0.946-9.412,0.649c-3.086-0.644-4.651-2.372-5.418-3.706     c-0.77-1.328-1.489-3.56-0.558-6.61c0.164-0.545,0.373-1.23,0.776-2.11c-0.606-0.309-1.122-0.788-1.467-1.382     c-0.946-1.644-0.434-3.736,1.165-4.755l15.564-9.879c3.296-2.632,7.295-5.609,12.156-9     c-11.895,6.993-19.433,11.384-19.618,11.486c-1.634,0.958-3.729,0.448-4.754-1.152c-1.019-1.589-0.603-3.705,0.946-4.791     c0.136-0.091,4.672-3.274,12.226-8.478c-3.912,2.268-7.671,4.439-11.243,6.52c-0.813,0.467-1.777,0.594-2.684,0.352     c-0.91-0.243-1.683-0.837-2.15-1.644c-0.561-0.977-1.11-2.602-0.497-4.767c0.055-0.2,0.124-0.4,0.2-0.612     c-1.665-0.716-2.611-1.826-3.129-2.729c-0.476-0.818-0.601-1.807-0.346-2.711c0.458-1.661,0.458-1.661,19.551-12.231     c0.343-0.188,0.691-0.382,1.046-0.576c-4.09,1.583-6.929,2.129-8.693,1.71c-1.334-0.333-2.423-1.122-3.068-2.237     c-0.482-0.831-0.601-1.838-0.328-2.766s0.916-1.704,1.777-2.141c0.403-0.212,36.917-18.945,76.505-41.11     c10.752-6.816,21.359-13.633,30.777-19.679c34.17-21.947,50.662-32.312,59.185-36.75c1.255-1.025,2.362-1.961,3.341-2.826     c-3.911,2.417-8.511,5.276-13.359,8.287c-24.118,14.97-60.562,37.596-92.254,56.39c-58.4,34.633-62.409,33.627-65.059,32.966     c-1.143-0.285-2.086-0.989-2.65-1.953c-0.613-1.073-1.201-2.723-0.843-4.9c-0.746-0.376-1.358-0.945-1.768-1.661     c-0.182-0.31-0.325-0.619-0.431-0.922c-1.731,0.23-2.692,0.019-3.414-0.127c-2.15-0.461-3.266-1.704-3.824-2.669     c-0.943-1.638-0.434-3.729,1.158-4.742l9.909-6.331c-0.437-0.297-0.8-0.691-1.067-1.152c-1.4-2.432-0.728-5.082,2.632-8.812     c-2.741,1.583-4.333,2.492-4.396,2.528c-1.665,0.946-3.781,0.4-4.775-1.236c-0.992-1.649-0.495-3.778,1.125-4.81     c0.063-0.042,2.216-1.419,5.821-3.699c-1.061-0.272-1.94-0.934-2.477-1.867c-0.54-0.94-0.792-1.838-0.573-2.851     c-0.995,0.673-1.983,1.353-2.971,2.025c-0.813,0.558-1.819,0.746-2.778,0.533c-0.961-0.224-1.783-0.83-2.277-1.68     c-0.513-0.897-1.01-2.383-0.431-4.36c0.124-0.431,0.273-0.934,0.601-1.589c-0.176-0.193-0.331-0.399-0.461-0.624     c-0.482-0.837-0.601-1.832-0.331-2.753c0.27-0.929,0.903-1.698,1.761-2.147c0.531-0.272,1.064-0.558,1.598-0.837     c0.709-0.437,1.662-1.043,2.811-1.789c-0.321-0.23-0.609-0.527-0.849-0.861c-1.101-1.595-0.715-3.777,0.864-4.894     c0.094-0.066,3.851-2.723,9.888-6.896c-3.645,1.789-4.661,1.777-5.722,1.504c-0.925-0.23-1.822-0.897-2.301-1.728     c-1.731-3.002-0.273-5.998,6.825-11.28c-0.264-0.272-0.494-0.57-0.682-0.903c-0.288-0.497-0.443-1.043-0.47-1.583     c-0.073-0.018-0.146-0.03-0.215-0.049c-1.146-0.272-2.092-0.97-2.656-1.946c-0.297-0.513-0.452-1.07-0.473-1.619l-0.609,0.349     c-1.692,0.977-3.851,0.397-4.824-1.292c-1.361-2.355-0.976-4.814,4.105-9.469c-0.04-0.063-0.082-0.127-0.115-0.188     c-0.221-0.385-0.37-0.8-0.434-1.231l-0.545,0.315c-1.665,0.961-3.788,0.418-4.785-1.225c-1-1.641-0.503-3.775,1.113-4.809     c3.442-2.205,6.911-4.43,10.382-6.674c-5.076,2.453-7.471,2.987-8.905,2.62c-1.067-0.264-1.947-0.918-2.478-1.84     c-1.877-3.245-0.328-6.183,11.204-13.963c-0.064-0.1-0.131-0.203-0.191-0.309c-0.618-1.07-0.676-2.001-0.36-2.853     c-3.509,1.395-4.533,1.149-5.428,0.937c-1.113-0.264-2.029-0.943-2.583-1.898c-1.826-3.163,0.397-4.739,7.759-9.964     c0.746-0.531,1.543-1.091,2.386-1.68c-0.094-0.015-0.185-0.037-0.276-0.055c-1.265-0.288-2.305-1.043-2.929-2.123     c-0.709-1.234-1.589-2.744,1.428-6.631c-0.825,0.364-1.249,0.273-2.001,0.109c-0.977-0.209-1.826-0.831-2.326-1.695     c-1.25-2.165-0.416-4.184,2.326-7.001c-1.222,0.161-2.483-0.327-3.272-1.361c-1.077-1.41-0.937-3.402,0.325-4.654     c3.104-3.068,6.374-6.377,9.369-9.484c-0.964-0.282-1.789-0.919-2.283-1.78c-0.658-1.134-0.794-1.962-0.224-3.199     c-0.042,0.027-0.088,0.048-0.13,0.076c-1.477,0.864-3.366,0.543-4.473-0.761c-1.11-1.307-1.122-3.217-0.03-4.536     c0.482-0.588,0.977-1.191,1.471-1.804c-0.137-0.024-0.27-0.058-0.413-0.094c-0.934-0.23-1.765-0.849-2.247-1.683     c-0.47-0.816-0.595-1.78-0.349-2.687c0.242-0.895,0.488-1.816,0.728-2.72c-4.294,2.42-4.588,2.341-5.643,2.056l0.919-3.408     l3.065-1.756l-3.065,1.756l-1.623-3.139c0.546-0.294,6.398-3.687,9.964-5.758c0.816-0.473,1.78-0.604,2.687-0.361     c0.907,0.243,1.68,0.84,2.15,1.649c0.606,1.058,0.797,1.382-0.23,5.488c1.134-0.701,2.298-1.428,3.39-2.12     c0.813-0.516,1.801-0.676,2.735-0.449c0.934,0.23,1.734,0.831,2.216,1.665c0.619,1.07,1.08,1.865-0.19,4.3     c1.167-0.494,1.531-0.395,2.144-0.228c0.906,0.243,1.68,0.834,2.149,1.646c0.616,1.067,0.737,1.983,0.258,3.217     c0.637-0.258,1.34-0.322,2.029-0.182c0.988,0.2,1.843,0.822,2.347,1.692c0.949,1.65,1.604,2.778-4.218,9.479l13.569-7.835     c0.81-0.47,1.777-0.591,2.68-0.352c0.907,0.243,1.677,0.831,2.144,1.643c0.819,1.419,0.658,2.596-0.106,3.733     c1.252-0.276,2.287-0.303,3.169-0.109c1.355,0.291,2.468,1.088,3.132,2.231c0.925,1.601,0.461,3.636-1.056,4.682     c-9.142,6.283-18.993,13.542-26.11,19.306c7.086-4.396,15.558-10.167,21.292-14.069c16.865-11.485,18.851-12.604,21.268-12.059     c1.01,0.23,1.883,0.873,2.396,1.762c1.829,3.168-0.312,5.512-10.336,12.868c5.697-3.626,11.468-7.344,17.098-11.031     c1.623-1.064,3.796-0.619,4.873,0.988c1.077,1.61,0.658,3.788-0.943,4.879c-1.361,0.934-2.768,1.901-4.218,2.893     c0.382-0.009,0.728,0.021,1.058,0.094c1.131,0.242,2.065,0.922,2.629,1.901c0.768,1.322,0.758,2.568,0.101,3.845     c9.815-6.056,10.146-5.971,11.574-5.622c0.931,0.233,1.74,0.843,2.219,1.674c1.947,3.372-0.279,5.892-14.012,15.84     c-0.403,0.297-0.818,0.597-1.243,0.9c0.771,0.285,1.425,0.831,1.841,1.549c0.54,0.94,0.676,2.062,0.382,3.163     c-0.519,1.925-1.282,4.751-28.939,22.071c-0.094,0.249-0.221,0.488-0.376,0.709c1.307-0.076,2.614,0.546,3.314,1.762     c0.416,0.719,0.561,1.386,0.519,1.999c9.479-6.195,9.588-6.162,11.21-5.776c0.943,0.224,1.765,0.837,2.25,1.674     c0.549,0.955,0.606,2.062,0.243,3.026c5.282-3.557,10.604-7.204,15.792-10.834c0.815-0.57,1.822-0.77,2.792-0.558     c0.967,0.215,1.798,0.828,2.295,1.683c0.585,1.013,0.81,2.001,0.549,3.078c14.242-8.384,17.038-9.275,18.957-8.787     c0.995,0.254,1.819,0.873,2.323,1.747c0.931,1.607,0.455,3.657-1.085,4.694l-3.047,2.059c0.682,0.018,1.177,0.127,1.586,0.218     c1.674,0.364,2.68,1.237,3.275,2.041c1.622-0.321,2.941-0.367,3.948-0.134c1.474,0.346,2.668,1.204,3.369,2.42     c0.485,0.834,0.604,1.828,0.331,2.756c-0.27,0.928-0.907,1.698-1.765,2.147c-0.528,0.272-1.058,0.545-1.586,0.821     c0.74,0.422,1.343,1.016,1.762,1.741c1.686,2.917,0.07,4.842-6.786,9.263c0.328,0.324,0.613,0.694,0.846,1.101     c0.57,0.985,0.712,2.168,0.397,3.333c-0.4,1.477-1.006,3.717-13.12,12.38c0.604,1.583-0.009,3.417-1.519,4.303     c-1.917,1.122-3.839,2.262-5.761,3.396c8.775-4.214,10.701-3.766,12.02-3.456c1.255,0.291,2.28,1.037,2.89,2.08     c0.94,1.638,0.434,3.729-1.158,4.748l-5.834,3.729c0.525,0.31,0.967,0.746,1.273,1.273c0.771,1.341,0.801,2.571,0.055,3.899     c4.818-2.462,9.761-4.984,14.833-7.556c7.523-3.814,15.297-7.763,22.763-11.61c16.067-10.009,31.583-19.8,45.173-28.481     c0.813-0.519,1.804-0.682,2.738-0.455c0.94,0.227,1.743,0.831,2.222,1.665c0.64,1.106,0.783,2.429,0.397,3.714     c-0.018,0.064-0.04,0.125-0.061,0.185c0.773-0.273,1.164-0.173,1.813-0.006c0.931,0.23,1.729,0.833,2.205,1.658     c0.649,1.125,1.261,3.002,0.506,5.561c-0.409,1.392-1.122,3.796-5.928,8.626c0.494,0.949,0.907,2.438,0.364,4.394     c-0.385,1.389-1.383,3.038-3.026,4.967c5.146-3.587,8.129-5.697,8.242-5.773c0.81-0.573,1.826-0.783,2.795-0.57     c0.974,0.215,1.808,0.828,2.302,1.686c0.567,0.979,0.703,2.146,0.382,3.287c-0.5,1.789-2.668,4.039-7.599,7.465     c1.149-0.109,2.22,0.285,3.054,1.734c1.109,1.923,0.558,3.736-1.107,5.707c1.692,0.667,2.632,1.771,3.147,2.656     c0.946,1.637,0.431,3.729-1.167,4.748l-9.533,6.059c1.995-0.485,3.493-0.582,4.542-0.334c1.313,0.334,2.393,1.11,3.026,2.208     c0.488,0.849,0.604,1.855,0.318,2.795c-0.285,0.935-0.943,1.717-1.822,2.147c-26.183,12.862-57.408,29.006-86.572,45.148     c-25.691,15.786-52.023,32.529-70.807,44.471c-5.858,3.724-10.51,6.677-14.218,9.023c-6.052,5.076-9.882,9.333-10.834,12.456     c-0.143,0.479-0.173,0.861-0.082,1.031c0.066,0.109,0.358,0.236,0.746,0.315c1.125,0.236,3.132,0.219,6.698-0.746     c2.99-3.699,11.668-9.278,31.344-20.291c13.872-9.261,31.019-20.547,48.503-31.675c39.036-24.827,61.869-37.514,75.489-43.894     c7.244-5.222,11.586-8.411,11.713-8.508c0.806-0.601,1.828-0.819,2.817-0.613c0.985,0.206,1.834,0.825,2.338,1.692     c0.197,0.346,0.397,0.771,0.533,1.273c1.801-0.188,2.787,0.03,3.526,0.2c2.202,0.497,3.329,1.765,3.896,2.741     c0.664,1.152,1.307,3.074,0.564,5.682c-0.273,0.952-0.749,1.972-1.423,3.045c0.598,0.485,1.001,1.024,1.271,1.491     c0.495,0.855,0.606,1.881,0.319,2.814c-0.292,0.939-0.965,1.716-1.851,2.141c-0.118,0.055-3.714,1.783-9.733,4.736     c1.176,0.612,1.88,1.479,2.29,2.184c0.285,0.484,0.434,1.019,0.47,1.552c1.434-0.818,2.231-1.279,2.283-1.304     c1.692-0.964,3.845-0.376,4.813,1.316c0.967,1.68,0.385,3.832-1.298,4.809l-27.878,16.101     c-29.998,17.569-58.627,35.192-78.57,48.546l106.236-61.329c1.686-0.977,3.851-0.4,4.827,1.292     c0.504,0.879,0.989,2.341,0.425,4.281c-0.406,1.37-1.034,3.511-6.807,8.453c0.861-0.176,1.541-0.163,2.153-0.023     c1.134,0.254,2.071,0.939,2.642,1.922c0.934,1.625,0.442,3.693-1.129,4.725l-2.698,1.758c1.101-0.242,1.88-0.26,2.45-0.121     c1.061,0.268,1.938,0.922,2.468,1.838c0.576,1.001,0.719,2.195,0.406,3.359c-0.431,1.602-1.94,3.438-5.139,5.962     c0.243,0.006,0.485,0.03,0.722,0.085c0.961,0.224,1.789,0.83,2.286,1.686c1.483,2.577,0.395,5.058-3.192,8.229     c0.534-0.073,0.971-0.019,1.407,0.091c1.019,0.23,1.9,0.885,2.416,1.776c0.94,1.632,0.434,3.724-1.155,4.736     c-2.322,1.486-4.724,3.021-7.189,4.609c0.258,0.272,0.488,0.576,0.676,0.915c0.476,0.819,0.6,1.808,0.343,2.718     c-0.258,0.915-0.874,1.691-1.713,2.146c-1.422,0.776-2.85,1.553-4.282,2.341c0.407,0.261,0.768,0.612,1.052,1.043     c1.025,1.57,0.646,3.669-0.864,4.785c-0.331,0.236-0.661,0.484-0.995,0.722c2.702-1.183,4.075-1.316,5.215-1.037     c1.061,0.261,1.94,0.915,2.474,1.837c0.664,1.146,0.606,2.518-0.03,3.584c2.947-1.521,3.75-1.461,4.785-1.2     c0.937,0.225,1.825,0.886,2.305,1.722c0.922,1.596,0.461,3.633-1.059,4.676c-4.839,3.33-9.772,6.762-14.572,10.146     c0.97,0.375,1.765,1.061,2.289,1.971c1.483,2.559-0.27,4.111-2.926,6.465c-1.419,1.255-3.42,3.001-5.731,5.015     c-0.792,0.691-1.68,1.462-2.629,2.292l10.819-6.246c1.689-0.982,3.851-0.4,4.827,1.292c0.958,1.655,1.756,3.044-4.669,9.327     c0.955,0.297,1.747,0.909,2.244,1.771c0.664,1.164,1.343,2.329-0.752,5.67c0.485-0.085,0.873-0.018,1.398,0.115     c0.934,0.219,1.752,0.837,2.238,1.674c0.803,1.383,0.564,3.147-0.579,4.275l-3.708,3.669c0.006,0.019,0.018,0.03,0.027,0.049     c0.424,0.746,0.57,1.613,0.403,2.45l-1.428,7.204c0.597,0.328,1.098,0.813,1.443,1.401c0.191,0.339,0.327,0.63,0.406,0.939     c2.492-1.438,5.228-3.02,7.383-4.275c1.689-0.982,3.848-0.406,4.831,1.273c0.979,1.692,0.403,3.857-1.286,4.833l-7.15,4.143     C245.739,488.018,244.28,488.86,243.273,488.86z M176.384,431.952c-4.876,3.104-9.061,5.943-11.962,8.229     c3.411-1.522,7.929-3.997,13.044-7.022c4.885-3.445,11.195-7.836,17.996-12.427C187.824,425.415,181.547,429.084,176.384,431.952     z M234.408,387.33c-6.271,3.718-13.881,8.114-23.075,13.391c-17.735,10.17-42.805,24.542-52.884,32.438     c3.584-1.517,8.445-3.997,14.248-7.235c7.341-4.676,17.044-10.449,29.604-17.744C212.442,401.8,223.386,394.692,234.408,387.33z      M108.824,349.52c-6.213,3.747-11.38,6.998-15.676,9.83c1.637-0.819,3.377-1.704,5.233-2.662     c12.941-7.496,28.775-16.665,45.307-26.234c4.197-2.59,8.624-5.367,13.293-8.327C142.717,330.398,126.689,339.513,108.824,349.52     z M152.129,315.71c-4.5,2.856-8.788,5.556-12.848,8.103c5.728-3.202,11.744-6.531,18.017-9.982     c7.426-4.324,14.815-8.69,21.956-12.99c13.484-8.119,24.164-14.852,32.611-20.412c-12.508,7.969-28.615,17.653-49.382,29.448     C159.021,311.841,155.562,313.788,152.129,315.71z M248.85,312.914c-1.449,1.644-3.411,3.457-5.861,5.446     c2.762-1.116,5.188-1.935,7.256-2.42c1.75-1.91,2.396-3.11,2.617-3.814C252.079,312.126,250.833,312.314,248.85,312.914z      M162.211,249.76c-9.002,4.299-24.284,14.282-38.157,23.687c9.584-5.664,16.392-9.466,21.274-12.02     C152.378,256.828,158.215,252.816,162.211,249.76z" style="fill:#5B8039;"/></g><g><path d="M268.936,216.652c-0.528,0-1.062-0.119-1.553-0.361c-1.056-0.516-1.783-1.522-1.947-2.687     c-0.097-0.731-0.206-1.492-0.321-2.247c-4.53,3.026-5.939,2.763-6.871,2.581c-1.121-0.215-2.092-0.897-2.653-1.868     c-0.655-1.131-0.758-1.986-0.173-3.269c-2.795,1.623-5.619,3.269-7.962,4.639c-1.586,0.925-3.614,0.482-4.669-1.013     c-1.058-1.501-0.792-3.563,0.612-4.742c1.319-1.106,2.668-2.262,4.015-3.423c-0.916-0.236-1.744-0.864-2.216-1.683     c-0.758-1.307-0.595-2.953,0.4-4.09c1.847-2.114,3.754-4.309,5.549-6.401l0.703-2.617l2.972-1.692l-2.972,1.692l-1.577-3.163     c0.646-0.336,7.123-4.097,11.046-6.386c0.818-0.473,1.776-0.604,2.687-0.361c0.909,0.24,1.68,0.831,2.159,1.646     c0.994,1.737,1.049,2.556-1.935,6.325c0.085-0.055,0.169-0.109,0.254-0.164c0.819-0.516,1.802-0.676,2.741-0.446     c0.928,0.23,1.729,0.831,2.201,1.662c0.813,1.397,1.475,2.541-1.789,6.41c0.825,0.272,1.517,0.833,1.947,1.589     c0.892,1.54,0.74,2.756-0.771,5.182c0.801,0.279,1.479,0.831,1.898,1.574c0.279,0.482,0.455,0.789,0.971,4.112l2.073-1.198     c1.687-0.973,3.846-0.394,4.828,1.298c0.976,1.686,0.399,3.848-1.292,4.824l-6.593,3.799     C270.16,216.491,269.548,216.652,268.936,216.652z" style="fill:#7AA84F;"/></g><g><path d="M152.145,183.295c-0.352,0-0.646-0.073-1.001-0.161c-0.928-0.233-1.765-0.861-2.241-1.688     c-1.352-2.338-0.509-4.066,3.714-8.351c-0.379-0.318-0.7-0.707-0.958-1.158c-0.655-1.125-1.004-1.728,0.291-3.845     c-12.684,7.62-14.118,7.28-15.337,6.986c-0.939-0.23-1.861-0.907-2.347-1.747c-1.334-2.313,0.045-3.933,2.253-6.268     c-1.18,0.385-2.104,0.442-2.947,0.255c-1.122-0.255-2.044-0.925-2.604-1.896c-0.713-1.237-1.358-2.353,1.783-8.211     c-1.94,1.343-4.206,2.975-6.777,4.882c-3.729,2.756-4.209,3.111-5.867,2.769c-0.989-0.209-1.847-0.828-2.35-1.701     c-1.01-1.744-0.913-3.163,1.625-6.289l-7.841,4.524c-1.538,0.888-3.5,0.497-4.576-0.919s-0.934-3.405,0.331-4.657     c1.461-1.438,2.959-2.929,4.445-4.427c-4.387,2.174-5.606,1.91-6.382,1.737c-1.11-0.246-2.029-0.913-2.583-1.874     c-0.686-1.183-0.673-2.241-0.218-3.242c-2.75,1.601-5.418,3.157-7.863,4.584c-1.585,0.922-3.611,0.479-4.666-1.019     c-0.758-1.073-0.837-2.435-0.304-3.554c-5.118,2.702-5.979,2.492-6.865,2.271c-0.934-0.23-1.807-0.879-2.286-1.71     c-0.042-0.076-0.082-0.149-0.118-0.228c0,0-0.943-1.944-1.847-3.805c-11.425,6.674-11.541,6.644-12.954,6.271l0.904-3.414     l3.053-1.777l-3.06,1.774l-1.51-3.184c0.828-0.424,8.587-4.943,13.284-7.693c0.813-0.47,1.777-0.606,2.69-0.364     c0.906,0.24,1.683,0.831,2.152,1.646c0.064,0.115,0.143,0.246,2.226,4.539c4.958-2.62,16.204-9.43,26.252-15.782     c0.81-0.513,1.798-0.673,2.729-0.443c0.934,0.23,1.734,0.831,2.216,1.662c0.595,1.034,1.113,1.928,0.016,3.899     c2.368-1.371,4.582-2.647,6.474-3.736c7.216-4.145,7.213-4.145,8.714-3.745c0.904,0.243,1.68,0.834,2.147,1.646     c1.055,1.826,0.928,3.253-1.465,5.794c0.704,0.297,1.298,0.816,1.686,1.489c0.952,1.653,1.604,2.781-4.242,9.488l7.784-4.494     c1.686-0.973,3.848-0.397,4.824,1.295c1.389,2.404-0.251,4.172-2.068,6.022c0.485-0.03,0.928,0.006,1.346,0.094     c1.246,0.258,2.271,0.992,2.893,2.065c0.664,1.149,0.625,2.574-0.097,3.69c-0.998,1.531-2.038,3.193-3.008,4.8     c1.949-1.301,3.899-2.647,5.36-3.66c7.017-4.852,8.275-5.725,10.304-5.271c0.964,0.216,1.85,0.868,2.344,1.72     c1.51,2.613-0.236,4.545-4.1,8.687c3.317-2.065,6.771-4.257,10.079-6.395c1.461-0.946,3.393-0.685,4.554,0.616     c1.159,1.298,1.198,3.253,0.091,4.594c-0.716,0.874-1.446,1.759-2.171,2.641c0.055,0.009,0.109,0.015,0.164,0.027     c1.094,0.197,2.038,0.861,2.589,1.819c0.928,1.604,0.897,2.738-0.676,4.736c0.251,0.021,0.5,0.085,0.819,0.167l-0.858,3.426     l-3.056,1.771c1.025,1.758,3.193,2.147,4.582,1.404c-0.367,0.197-2.159,1.304-3.887,2.377     C156.08,181.97,153.627,183.295,152.145,183.295z" style="fill:#7AA84F;"/></g><g><path d="M343.934,209.004c-0.34,0-0.637-0.057-0.953-0.136c-0.939-0.23-1.813-0.882-2.292-1.716     c-0.867-1.489-1.024-1.755,1.789-7.717c-16.064,9.76-16.598,9.627-18.345,9.185c-0.928-0.234-1.752-0.861-2.231-1.689     c-0.977-1.686-0.4-3.848,1.292-4.824c0.43-0.252,0.891-0.397,1.358-0.449c2.856-1.268,15.13-8.784,19.866-11.686     c5.628-3.454,5.628-3.451,7.12-3.069c0.915,0.234,1.704,0.825,2.177,1.641c0.977,1.677,0.994,1.704-2.432,8.833     c2.347-1.449,4.585-2.871,5.81-3.645c3.784-2.408,4.015-2.55,5.513-2.18c0.934,0.228,1.729,0.822,2.213,1.646     c0.188,0.318,0.219,0.41,0.504,1.264c0.625,1.853,1.104,3.275,1.485,4.367l0.564-0.331c1.691-0.97,3.856-0.4,4.833,1.292     c0.977,1.691,0.389,3.851-1.292,4.827l-4.208,2.426c-0.813,0.47-1.777,0.597-2.675,0.354c-0.909-0.243-1.68-0.834-2.146-1.649     c-0.219-0.361-0.449-0.767-2.032-5.403C348.385,207.604,345.625,209.004,343.934,209.004z" style="fill:#D31E25;"/></g><g><path d="M346.056,149.228c-0.297,0-0.595-0.058-0.946-0.139c-0.952-0.225-1.783-0.84-2.273-1.683     c-0.474-0.813-0.589-1.744-0.37-2.604c-0.691,0.512-1.377,1.028-2.044,1.534c-0.813,0.616-1.838,0.852-2.838,0.649     c-0.995-0.2-1.855-0.819-2.365-1.695c-0.746-1.285-0.916-2.338-0.115-3.69c-6.641,3.89-9.503,4.767-11.602,4.275     c-1.158-0.27-2.104-0.967-2.68-1.959c-0.965-1.686-0.389-3.848,1.304-4.824c0.915-0.531,1.982-0.601,2.923-0.279     c4.19-1.286,18.836-11.037,27.763-16.971c16.701-11.116,18.447-12.086,20.831-11.528c0.952,0.218,1.874,0.901,2.365,1.747     c1.746,3.023,0.309,5.461-8.824,12.747c0.485,0.349,0.897,0.798,1.207,1.334c0.758,1.313,0.582,2.959-0.395,4.084     c0.765,0.321,1.401,0.876,1.813,1.601c0.977,1.692,0.4,3.851-1.292,4.827c-0.685,0.395-1.443,0.534-2.177,0.449     c-2.45,1.034-9.363,5.637-12.808,7.938C348.5,148.385,347.238,149.228,346.056,149.228z" style="fill:#D31E25;"/></g><g><path d="M361.483,118.169c-0.334,0-0.576-0.061-0.849-0.127c-0.935-0.23-1.789-0.864-2.274-1.698     c-0.861-1.504-0.516-3.411,0.831-4.509l2.353-1.913c-0.157-0.185-0.31-0.385-0.431-0.594c-0.854-1.48-0.527-3.357,0.771-4.458     c0.661-0.558,1.322-1.125,1.983-1.698c-1.086,0.215-1.644,0.1-2.002,0.027c-1.213-0.249-2.213-0.961-2.813-1.999     c-0.552-0.958-0.612-2.08-0.23-3.053c-4.088,2.468-4.718,2.465-6.01,2.15c-0.94-0.228-1.777-0.855-2.263-1.689     c-1.85-3.187,1.165-5.452,5.337-8.584c0.897-0.67,1.898-1.407,2.99-2.195c-3.153,1.904-6.313,3.827-9.412,5.719     c-0.818,0.498-1.795,0.643-2.717,0.41c-0.922-0.237-1.704-0.831-2.184-1.659c-1.819-3.153,0.037-5.421,8.399-11.243     c-11.013,6.94-20.383,12.607-20.498,12.677c-1.648,1-3.802,0.488-4.826-1.152c-0.51-0.822-0.638-1.762-0.449-2.635     c-1.049-0.285-1.91-0.943-2.444-1.865c-0.892-1.534-0.497-3.487,0.91-4.569l6.968-5.355c-33.73,19.667-34.076,19.579-35.901,19.1     c-0.909-0.24-1.698-0.843-2.177-1.662c-0.066-0.13-0.14-0.261-0.2-0.4c-6.222,3.229-10.406,4.542-12.996,3.951     c-1.413-0.321-2.565-1.152-3.25-2.341c-0.977-1.692-0.4-3.851,1.291-4.824c1.268-0.737,2.808-0.588,3.905,0.249     c3.463-0.355,12.948-5.876,23.942-12.905c5.755-4.209,14.124-9.858,26.313-17.526c1.279-0.864,2.522-1.713,3.724-2.532     c32.123-21.88,40.776-27.259,45.144-26.262c1.176,0.27,2.146,0.973,2.734,1.989c0.474,0.813,0.595,1.777,0.346,2.683     c-0.236,0.91-0.837,1.677-1.644,2.147c-10.236,5.879-20.679,12.05-30.546,18.047c8.575-5.033,17.047-10.024,24.555-14.451     c1.607-0.952,3.675-0.485,4.725,1.062c1.043,1.543,0.703,3.639-0.776,4.778l-4.209,3.232c6.222-3.732,8.29-4.333,10.006-3.924     c1.043,0.249,1.917,0.892,2.444,1.808c0.521,0.897,0.686,1.768,0.516,2.653c0.982,0.272,1.795,0.891,2.292,1.758     c0.958,1.671,0.892,3.366-0.333,5.364c3.553-1.701,4.214-1.534,4.905-1.355c0.929,0.233,1.765,0.861,2.244,1.683     c1.595,2.769,0.703,5.207-7.017,11.468c0.637,0.331,1.171,0.831,1.541,1.461c0.849,1.486,0.521,3.375-0.801,4.476l-5.01,4.185     c0.595,0.306,1.092,0.779,1.432,1.367c0.939,1.625,1.753,3.042-4.021,9.197c0.661,0.339,1.213,0.858,1.601,1.519     c0.861,1.504,0.516,3.411-0.831,4.506l-2.917,2.374c0.098,0.115,0.194,0.243,0.279,0.376c1.043,1.646,0.558,3.83-1.086,4.876     C366.565,116.623,363.115,118.169,361.483,118.169z" style="fill:#D31E25;"/></g><g><path d="M333.351,248.535c-0.23,0-0.473-0.021-0.728-0.073c-0.994-0.203-1.868-0.837-2.377-1.71     c-0.449-0.773-0.589-1.68-0.389-2.55c0.098-0.421,0.194-0.867,0.297-1.313c-1.249-0.916-1.758-2.538-1.242-4.008     c0.588-1.668,1.194-3.493,1.728-5.203c-2.043,1.246-4.323,2.677-6.409,4.011c-0.807,0.528-1.802,0.688-2.735,0.461     c-0.94-0.228-1.747-0.825-2.231-1.665c-1.456-2.523,0.121-4.697,3.22-8.305c-0.019-0.088-0.042-0.182-0.061-0.273l-0.121-0.676     c-3.457,1.992-3.736,1.914-4.906,1.61c-0.916-0.237-1.698-0.837-2.171-1.656c-0.552-0.955-0.789-1.368,0.272-4.021     c-2.649,1.31-3.541,1.116-4.275,0.958c-1.055-0.221-1.971-0.879-2.505-1.804c-1.588-2.759-0.199-5.552,4.275-9.627l-2.668,1.543     c-0.813,0.467-1.776,0.594-2.681,0.352c-0.909-0.243-1.68-0.834-2.146-1.644c-0.97-1.677-0.807-3.29,0.782-5.409     c-1.898,0.64-2.583,0.482-3.087,0.364c-1.062-0.252-1.94-0.898-2.474-1.816c-0.722-1.25-1.559-2.702,1.601-6.725     c-5.694,3.247-7.296,3.52-8.83,3.141c-1.019-0.249-1.874-0.879-2.389-1.78c-0.376-0.655-0.521-1.383-0.461-2.086     c-0.364,0.246-0.728,0.491-1.092,0.734c-0.801,0.54-1.795,0.731-2.741,0.516c-0.946-0.209-1.759-0.801-2.256-1.631     c-1.207-2.017-0.4-3.399,1.079-4.715l-0.018-0.033c0.091-0.061,0.182-0.124,0.272-0.188c0.461-0.394,0.988-0.785,1.522-1.186     c0.03-0.027,0.066-0.048,0.103-0.076c-0.108-0.021-0.206-0.042-0.314-0.07c-1.02-0.255-1.856-0.882-2.371-1.774     c-0.413-0.703-0.607-1.307-0.607-1.868c-1.576,0.679-2.073,0.555-2.844,0.358c-0.922-0.233-1.746-0.855-2.214-1.677     c-0.509-0.874-0.661-1.677-0.527-2.447c-2.056,1.316-4.111,2.635-6.137,3.942c-0.813,0.528-1.808,0.697-2.741,0.47     c-0.94-0.228-1.747-0.831-2.231-1.668c-0.552-0.958-0.691-2.089-0.395-3.19c0.503-1.807,2.146-3.542,6.531-6.416     c-0.722-2.01,0.667-3.399,2.468-4.73c-2.644,0.627-3.826,0.367-4.675,0.182c-1.541-0.339-2.778-1.216-3.506-2.474     c-0.849-1.464-0.739-2.738,0.321-4.224c-2.353,1.022-3.875,1.265-5.1,0.979c-1.134-0.264-2.071-0.949-2.635-1.932     c-0.94-1.622-1.098-3.241,0.309-5.406c-0.294-0.215-0.563-0.479-0.794-0.791c-1.146-1.58-0.798-3.791,0.782-4.937     c18.002-13.075,49.379-34.764,57.269-33.078c1.377,0.294,2.505,1.088,3.172,2.241c0.2,0.352,0.346,0.685,0.437,1.01     c3.075-1.477,4.967-1.874,6.392-1.538c1.146,0.264,2.099,0.958,2.669,1.95c0.916,1.592,0.467,3.617-1.037,4.666     c-16.799,11.674-34.883,24.591-45.792,32.824c18.466-9.051,55.337-32.757,88.679-56.256c0.819-0.573,1.832-0.779,2.802-0.564     c0.958,0.215,1.802,0.825,2.299,1.683c1.625,2.817-0.964,4.833-2.499,6.043c-1.121,0.876-2.74,2.071-4.936,3.651     c-3.888,2.795-9.406,6.656-16.865,11.801c-9.176,6.322-20.164,13.814-30.692,20.964c0.098,0.13,0.188,0.264,0.268,0.406     c0.176,0.294,0.309,0.61,0.399,0.928c0.57-0.049,0.88,0.024,1.141,0.084c1.043,0.255,1.904,0.892,2.426,1.804     c0.631,1.08,0.855,2.068,0.431,3.202c0,0,0,0,0.012,0c0.922,0.233,1.747,0.858,2.22,1.683c0.449,0.768,0.619,1.432,0.564,2.047     c2.553-1.474,2.94-1.376,3.936-1.125c0.928,0.23,1.729,0.834,2.213,1.665c0.892,1.549,0.485,3.526-0.945,4.597     c-0.183,0.139-0.376,0.282-0.576,0.427c0.146,0.024,0.267,0.052,0.37,0.073c1.115,0.258,2.031,0.928,2.583,1.889     c0.261,0.446,0.516,0.892,0.631,1.422c2.244-1.104,3.074-1.095,4.051-0.858c0.934,0.23,1.825,0.889,2.305,1.723     c0.903,1.57,0.473,3.568-0.995,4.63c-7.247,5.236-14.937,11.073-21.395,16.265c5.343-3.333,11.213-7.117,16.768-10.804     c0.807-0.54,1.808-0.719,2.76-0.497c0.946,0.224,1.759,0.828,2.25,1.674c1.273,2.207,0.654,3.993-2.905,7.216l3.178-1.829     c0.813-0.47,1.777-0.597,2.675-0.354c0.909,0.243,1.674,0.834,2.146,1.646c2.492,4.312-2.159,8.032-17.235,19.148     c-1.776,1.307-3.796,2.798-5.821,4.32c1.062,1.043,1.358,2.647,0.722,4.012c-0.461,0.974-0.922,1.974-1.383,2.957     c0.291,0.055,0.576,0.143,0.855,0.267c1.049,0.482,1.795,1.452,2.007,2.595l0.128,0.74c0.169,0.006,0.309,0.019,0.418,0.027     c1.316,0.122,2.443,0.846,3.104,1.992c0.146,0.255,0.261,0.503,0.346,0.746c2.632-1.337,3.263-1.183,4.13-0.974     c0.94,0.228,1.795,0.858,2.269,1.698c0.655,1.122,1.315,2.274-1.619,11.374c0.115,0.142,0.212,0.291,0.303,0.448     c0.601,1.043,0.795,1.674-0.121,6.049c0.716,1.607,0.134,3.521-1.389,4.448C335.395,247.944,334.521,248.535,333.351,248.535z" style="fill:#D31E25;"/></g><g><path d="M270.366,72.132c-1.213,0-2.407-0.637-3.063-1.765c-0.977-1.692-0.388-3.854,1.298-4.827     l58.388-33.712c1.686-0.977,3.845-0.397,4.827,1.294c0.977,1.692,0.395,3.848-1.298,4.824l-58.382,33.712     C271.573,71.977,270.973,72.132,270.366,72.132z" style="fill:#D31E25;"/></g><g><path d="M231.915,103.111c-0.306,0-0.609-0.039-0.916-0.118c-0.904-0.242-1.677-0.837-2.141-1.646     c-2.025-3.508,0.992-6.577,8.257-11.862c-0.364-1.207-0.058-2.565,0.892-3.514c1.14-1.14,2.326-2.35,3.484-3.566     c-3.502,2.223-7.295,4.718-10.783,7.095c-1.537,1.046-3.623,0.722-4.77-0.74c-1.149-1.464-0.964-3.569,0.422-4.809     c1.382-1.237,2.811-2.547,4.218-3.86c-7.696,4.573-17.126,10.367-25.98,15.949c-1.543,0.976-3.575,0.613-4.688-0.84     c-1.109-1.45-0.934-3.502,0.41-4.743l7.501-6.935l-23.208,13.402c-1.689,0.977-3.851,0.395-4.828-1.294     c-0.973-1.686-0.397-3.848,1.295-4.824l50.634-29.23c1.559-0.9,3.542-0.485,4.612,0.961c1.064,1.449,0.873,3.466-0.452,4.69     l-4.497,4.157c13.008-7.504,14.378-7.162,15.482-6.889c0.931,0.234,1.834,0.901,2.316,1.731c0.506,0.885,0.989,1.719,0.361,3.354     c3.281-1.504,4.23-1.289,4.952-1.122c1.067,0.242,1.947,0.882,2.48,1.81c0.709,1.222,1.428,2.468-1.265,6.464     c0.87,0.34,1.601,0.961,2.065,1.768c0.349,0.606,0.558,1.167,0.612,1.719l95.732-55.274c1.691-0.973,3.851-0.397,4.833,1.295     c0.977,1.689,0.389,3.848-1.298,4.824L233.68,102.639C233.143,102.954,232.531,103.111,231.915,103.111z" style="fill:#D31E25;"/></g><g><path d="M187.433,243.362c-0.306,0-0.61-0.04-0.91-0.121c-0.907-0.243-1.68-0.834-2.15-1.644     c-1.219-2.117-0.985-4,2.684-7.653c-0.261-0.018-0.458-0.067-0.616-0.1c-1.17-0.261-2.138-0.955-2.717-1.956     c-1.604-2.774,0.846-4.57,2.159-5.531c0.782-0.57,1.916-1.389,3.317-2.405c4.103-2.959,7.792-5.658,11.119-8.111     c-1.007,0.257-1.78,0.257-2.49,0.091c-1.091-0.254-1.995-0.918-2.544-1.868c-0.937-1.631-0.439-3.711,1.146-4.733     c5.076-3.278,10.294-6.75,15.358-10.209c-9.894,5.622-11.722,5.786-13.235,5.407c-1.013-0.255-1.85-0.883-2.362-1.765     c-0.346-0.6-0.576-1.198-0.676-1.804c-3.526,1.865-5.879,2.951-7.52,3.557c-16.844,8.459-23.487,9.136-27.06,8.375     c-2.677-0.563-4.045-2.083-4.721-3.253c-0.955-1.652-0.425-3.763,1.194-4.772l4.973-3.075c-0.582-0.313-1.07-0.776-1.403-1.358     c-0.525-0.903-1.028-2.408-0.461-4.436c0.509-1.832,1.534-5.479,16.134-16.444c-0.694-1.57-0.151-3.45,1.337-4.396     c0.118-0.079,5.719-3.647,14.327-9.06c-0.837-0.333-1.531-0.928-1.98-1.707c-0.758-1.313-0.974-2.532-0.127-4.082     c-0.852-0.261-1.577-0.834-2.025-1.61c-0.488-0.846-0.958-2.238-0.421-4.097c0.324-1.128,0.837-2.902,5.133-6.786     c-0.024-0.148-0.04-0.306-0.048-0.46l-2.656,1.68c-1.619,1.021-3.763,0.573-4.827-1.022c-1.064-1.592-0.664-3.742,0.9-4.849     c0.039-0.027,0.485-0.342,1.301-0.916c-8.356,4.46-11.826,5.579-13.557,5.14c-1.028-0.261-1.886-0.897-2.405-1.798     c-0.537-0.928-1.052-2.453-0.485-4.472c-1.371-0.646-2.165-1.598-2.617-2.38c-0.091-0.158-0.167-0.318-0.23-0.488     c-2.447,1.349-3.793,1.619-5.085,1.331c-1.061-0.233-1.977-0.904-2.517-1.832c-0.285-0.494-0.446-1.049-0.467-1.619l-4.685,2.705     c-0.813,0.47-1.777,0.594-2.68,0.354c-0.904-0.243-1.677-0.837-2.147-1.646c-0.718-1.246-1.349-2.344,1.08-5.925     c-0.54-0.31-0.988-0.755-1.304-1.301c-0.225-0.388-0.37-0.804-0.437-1.228l-3.26,1.883c-1.401,0.807-3.172,0.564-4.3-0.597     c-1.125-1.158-1.322-2.935-0.476-4.312c0.804-1.307,1.634-2.672,2.444-4.021c-2.947,1.637-3.547,1.592-4.669,1.307     c-0.928-0.234-1.747-0.849-2.223-1.677c-1.744-3.018-0.612-5.837,8.29-12.159c-0.094-0.13-0.179-0.261-0.254-0.395     c-0.437-0.758-0.604-1.443-0.549-2.086c-5.519,2.408-6.88,2.083-7.917,1.841c-1.161-0.279-2.116-0.974-2.683-1.962     c-1.729-2.993,1.137-5.115,3.229-6.665c1.046-0.773,2.429-1.75,4.194-2.956c-0.164-0.024-0.318-0.049-0.473-0.085     c-1.376-0.315-2.505-1.131-3.175-2.292c-1.116-1.935-0.773-3.963,0.691-6.21c-2.75,1.789-3.184,1.689-4.306,1.443     c-0.97-0.212-1.823-0.834-2.32-1.695c-1.049-1.819-0.846-3.593,1.286-6.095l-0.185,0.109c-1.637,0.946-3.729,0.437-4.745-1.161     c-1.019-1.592-0.601-3.703,0.946-4.791c4.054-2.844,8.166-5.773,12.217-8.693c-3.478,1.386-4.539,1.143-5.133,1.004     c-1.144-0.261-2.086-0.946-2.653-1.925c-0.658-1.144-0.716-2.162-0.313-3.15c-0.206,0.124-0.415,0.242-0.618,0.36     c-1.65,0.961-3.766,0.44-4.776-1.179c-1.013-1.619-0.555-3.748,1.034-4.809c0.798-0.531,1.595-1.067,2.393-1.604     c-0.5,0.045-0.8-0.027-1.088-0.097c-0.934-0.23-1.832-0.895-2.311-1.731c-0.84-1.443-0.546-3.284,0.704-4.396     c1.207-1.083,2.429-2.18,3.653-3.281c-2.25,1.106-2.695,0.991-3.457,0.792c-0.913-0.237-1.698-0.837-2.165-1.653     c-0.979-1.692-0.397-3.851,1.292-4.827c0.2-0.115,0.403-0.206,0.609-0.279c2.213-1.113,16.996-9.767,26.043-15.109     c0.813-0.479,1.78-0.616,2.695-0.376c0.913,0.239,1.689,0.833,2.162,1.649c1.537,2.665-0.197,4.339-4.385,8.387     c-0.003,0.003-0.009,0.012-0.015,0.016c4.906-2.999,10.082-6.213,15.058-9.36c0.813-0.51,1.801-0.673,2.735-0.44     c0.931,0.23,1.729,0.828,2.21,1.659c0.564,0.982,1.137,1.971,0.016,3.951c2.662-1.434,2.999-1.343,4.008-1.073     c0.907,0.243,1.68,0.834,2.147,1.646c0.615,1.064,0.712,2.086,0.373,3.117c0.81-0.531,1.798-0.716,2.735-0.495     c0.958,0.219,1.783,0.825,2.271,1.674c1.729,2.99-0.594,5.816-6.17,10.61l15.476-8.936c1.692-0.976,3.851-0.397,4.827,1.292     c0.807,1.401,0.764,2.535-0.015,3.696c0.704-0.04,1.334,0.003,1.892,0.127c1.528,0.334,2.781,1.222,3.518,2.496     c0.964,1.671,0.406,3.814-1.252,4.803c-21.983,13.096-46.089,29-56.068,37.565c10.622-5.397,30.4-18.827,42.223-26.853     c23.33-15.837,26.326-17.578,29.137-16.932c1.046,0.24,1.91,0.874,2.441,1.789c1.953,3.387-1.613,6.195-5.067,8.912     c-1.328,1.043-2.935,2.247-4.849,3.629c5.024-3.229,10.058-6.492,15.013-9.742c1.628-1.07,3.817-0.616,4.885,1.016     c1.073,1.625,0.625,3.818-1.004,4.891c-1.892,1.246-3.86,2.544-5.885,3.884c0.312,0.003,0.603,0.037,0.882,0.101     c1.152,0.249,2.101,0.937,2.674,1.928c2.292,3.969-1.992,7.253-12.314,13.806c-7.307,4.636-17.208,10.424-27.684,16.549     c-2.45,1.435-5.079,2.972-7.796,4.563c-9.937,6.792-17.823,11.731-23.706,14.315c-0.385,0.245-0.767,0.488-1.14,0.73     c0.792,1.376,1.067,2.065-1.992,7.511l3.229-1.865c1.692-0.977,3.848-0.397,4.827,1.292c0.225,0.391,0.397,0.749,0.494,1.125     c0.889-0.303,1.443-0.251,2.147-0.079c0.931,0.23,1.768,0.858,2.244,1.689c0.792,1.367,0.579,3.099-0.53,4.233     c-0.652,0.667-1.322,1.371-1.995,2.08c0.703,0.285,1.319,0.794,1.728,1.504c0.352,0.609,0.503,0.867,0.461,2.341     c1.801-1.176,3.706-2.508,4.733-3.226c2.99-2.092,3.614-2.529,5.221-2.174c0.964,0.212,1.804,0.825,2.298,1.683     c0.655,1.125,0.634,2.517-0.048,3.626l-1.149,1.859c12.996-10.583,42.6-26.719,91.317-52.441     c10.843-5.728,22.923-12.104,34.53-18.387c29.667-19.594,52.712-35.571,53.027-35.786c0.807-0.561,1.819-0.761,2.783-0.542     c0.958,0.215,1.789,0.822,2.28,1.68c0.315,0.54,0.618,1.298,0.673,2.247c6.599-3.314,9.703-4.2,11.335-3.784     c1.055,0.267,1.922,0.916,2.456,1.832c0.945,1.64,0.431,3.741-1.177,4.751l-1.855,1.177c0.061,0.012,0.121,0.027,0.182,0.039     c2.583,0.564,3.899,2.026,4.555,3.154c0.576,1.003,1.122,2.668,0.454,4.918c-1.091,3.632-3.893,12.98-80.765,56.089     c0.066,0.925-0.31,1.811-1.146,2.774c0.697,0.455,1.279,1.059,1.692,1.777c0.582,1.003,0.722,2.21,0.4,3.405     c-0.31,1.101-0.716,2.605-5.452,6.607c0.109,0.143,0.206,0.288,0.297,0.446c0.388,0.679,0.54,1.455,0.449,2.219     c12.759-6.095,15.458-5.464,17.04-5.094c1.407,0.328,2.554,1.146,3.221,2.305c0.68,1.17,0.612,2.571-0.066,3.647     c0.885,0.249,1.637,0.831,2.098,1.632c0.54,0.937,0.68,2.049,0.376,3.132c-0.831,3.072-6.543,7.38-24.663,18.066     c-10.449,7.32-23.506,16.34-37.269,25.51c-0.431,1.88-2.347,3.578-4.63,5.209c0.725,0.291,1.334,0.821,1.729,1.504     c1.825,3.163,1.55,6.671-17.232,20.792c1.577,2.778,0.449,5.594-8.436,13.166c0.852,0.258,1.583,0.834,2.035,1.613     c1.822,3.157-1.194,5.525-5.009,8.521c-2.753,2.162-6.586,4.985-10.646,7.972c-5.015,3.687-12.171,8.957-17.104,12.993     l1.443,2.753c-0.464,0.255-5.409,3.12-8.417,4.864C188.664,243.198,188.048,243.362,187.433,243.362z M181.69,198.137     l-9.178,5.688c2.271-0.882,5.024-2.065,8.359-3.66c0.027-0.152,0.058-0.3,0.1-0.452     C181.104,199.223,181.338,198.698,181.69,198.137z M293.096,129.112L279.39,137.6c3.323-1.916,6.538-3.793,9.576-5.588     C290.385,131.014,291.768,130.043,293.096,129.112z M287.656,107.784c-8.054,3.708-21.65,12.426-34.737,21.216     c10.697-6.286,18.309-10.528,23.784-13.369C281.209,112.578,284.927,109.925,287.656,107.784z M288.201,89.306     c0.485,0,0.922,0.048,1.311,0.139c1.334,0.315,2.438,1.107,3.08,2.232c0.092,0.152,0.17,0.309,0.23,0.47     c66.672-37.275,77.643-49.225,79.383-52.466c-1.74-0.212-6.361,0.403-18.545,6.08l-70.668,44.646     C285.163,89.658,286.88,89.306,288.201,89.306z M130.116,40.849c1.219,0,2.398,0.628,3.056,1.756     c-0.895-1.534-2.638-2.011-3.938-1.644C129.524,40.888,129.821,40.849,130.116,40.849z" style="fill:#D31E25;"/></g><g><path d="M372.375,174.383c-1.141,0-2.262-0.558-2.941-1.576c-1.049-1.577-0.667-3.7,0.861-4.813     c0.104-0.079,10.752-7.829,22.214-15.379c-1.808,1.109-3.663,2.268-5.549,3.454c-6.435,4.396-14.458,9.624-24.445,15.852     c-1.632,1.019-3.784,0.54-4.827-1.079c-1.056-1.62-0.613-3.781,0.994-4.855c0.115-0.076,9.667-6.453,20.959-13.629     c0.739-0.503,1.479-1.004,2.201-1.501c-11.456,6.855-24.579,14.973-35.253,21.72c-1.134,0.715-2.564,0.73-3.699,0.045     c-1.146-0.685-1.807-1.952-1.71-3.284l0.576-8.047c-0.121-0.143-0.23-0.3-0.321-0.47c-0.977-1.689-0.4-3.848,1.286-4.827     l1.012-0.58c1.135-0.655,2.529-0.63,3.639,0.061c1.11,0.697,1.747,1.943,1.644,3.25l-0.291,4.169     c5.798-3.626,15.119-9.418,24.53-15.125c32.105-19.433,33.931-18.987,35.871-18.511c1.013,0.251,1.861,0.876,2.377,1.765     c0.346,0.609,0.74,1.283,0.691,2.238c5.191-2.414,6.459-2.117,7.521-1.871c1.134,0.264,2.062,0.946,2.626,1.914     c0.69,1.198,0.934,2.459,0.382,4.018c0.218,0.036,0.399,0.076,0.569,0.109c1.359,0.288,2.475,1.077,3.13,2.214     c0.994,1.716,0.631,3.126-1.056,5.646l13.669-7.89c1.687-0.973,3.845-0.397,4.821,1.295c0.977,1.689,0.4,3.851-1.291,4.827     l-26.472,15.279c-0.807,0.47-1.776,0.597-2.674,0.354c-0.91-0.242-1.681-0.833-2.147-1.646c-1.51-2.613,0.146-5.267,4.052-10.5     c-1.413,0.743-3.009,1.625-4.719,2.625c-3.123,2.372-6.956,5.106-11.613,8.284c-12.056,8.22-24.657,15.876-24.791,15.952     C373.637,174.216,373.006,174.383,372.375,174.383z" style="fill:#7AA84F;"/></g><g><path d="M376.426,146.138c-0.333,0-0.576-0.061-0.849-0.127c-0.928-0.23-1.789-0.867-2.269-1.701     c-0.758-1.319-0.588-2.978,0.425-4.115c1.68-1.88,3.402-3.827,5.052-5.71c-0.619-0.227-1.207-0.703-1.717-1.54     c-1.006-1.671-0.467-3.842,1.201-4.849c0.109-0.063,0.219-0.121,0.334-0.176c0.958-0.524,7.429-4.281,11.383-6.586     c0.813-0.473,1.776-0.606,2.68-0.364c0.91,0.24,1.687,0.831,2.153,1.644c1.062,1.834,1.073,2.656-2.42,6.901     c2.123-1.307,4.275-2.656,6.361-3.975c1.644-1.043,3.833-0.549,4.876,1.101c1.043,1.649,0.552,3.829-1.104,4.869     C382.248,144.343,378.203,146.138,376.426,146.138z" style="fill:#7AA84F;"/></g><g><path d="M418.331,221.542c-0.376,0-0.649-0.061-0.892-0.115c-1.08-0.243-1.971-0.889-2.511-1.823     c-0.449-0.779-0.576-1.677-0.395-2.507c-3.05,1.88-4.639,2.311-6.191,1.986c-1.079-0.224-2.007-0.873-2.577-1.789     c-3.572,1.859-4.912,2.007-6.186,1.701c-1.037-0.251-1.893-0.888-2.414-1.798c-1.158-2.001-0.37-3.93,1.268-5.807     c-0.267-0.242-0.491-0.521-0.673-0.836c-0.188-0.319-0.315-0.628-0.419-0.928c-2.777,1.286-3.329,1.14-3.966,0.977     c-0.916-0.233-1.729-0.852-2.208-1.674c-2.067-3.581,1.844-6.546,7.757-11.028c2.923-2.213,6.567-4.828,10.395-7.542     c-8.466,5.449-17.672,11.662-26.229,17.696c-0.813,0.573-1.819,0.776-2.79,0.564c-0.97-0.215-1.807-0.828-2.304-1.683     c-0.613-1.061-0.765-2.329-0.425-3.566c0.406-1.498,1.637-3.111,3.869-5.024c-0.091-0.122-0.17-0.243-0.249-0.37     c-1.188-2.065-0.631-4.19,1.456-6.744l-11.104,6.413c-0.818,0.47-1.776,0.594-2.687,0.355c-0.897-0.243-1.674-0.837-2.146-1.646     c-1.438-2.496-0.406-4.527,3.809-8.018c-0.68-0.109-1.328-0.409-1.855-0.9c-0.589-0.546-0.965-1.261-1.092-2.02l-9.182,5.304     c-1.692,0.976-3.851,0.4-4.827-1.292c-0.977-1.689-0.395-3.848,1.292-4.827l17.277-9.973c0.818-0.47,1.776-0.598,2.687-0.355     c0.909,0.243,1.673,0.834,2.146,1.646c0.225,0.385,0.388,0.743,0.467,1.165l21.796-12.581c0.813-0.47,1.782-0.598,2.686-0.355     c0.904,0.243,1.674,0.834,2.142,1.646c0.939,1.631,0.824,3.253-0.37,5.134l46.162-26.653c1.674-0.964,3.814-0.406,4.803,1.252     s0.461,3.805-1.183,4.818c-8.812,5.413-17.817,11.122-26.234,16.635c15.082-8.89,15.477-8.79,17.077-8.372     c0.916,0.237,1.71,0.846,2.189,1.665c0.588,1.016,0.733,2.223,0.406,3.399c-0.382,1.404-1.528,2.893-3.675,4.7     c0.169,0.194,0.315,0.41,0.448,0.637c1.449,2.52-0.049,4.728-3.117,7.369c0.582-0.355,1.171-0.704,1.729-1.046     c0.818-0.488,1.795-0.634,2.711-0.397c0.922,0.236,1.704,0.831,2.184,1.656c1.606,2.789-0.292,5.185-4.464,8.341     c0.157,0.333,0.267,0.679,0.31,1.028c3.614-1.983,4.706-2.071,5.942-1.774c1.001,0.249,1.844,0.867,2.348,1.747     c1.74,3.011-0.498,4.934-5.628,8.678c0.582,1.374,0.236,2.99-0.897,4.002l-3.499,3.135c0.667,0.24,1.268,0.679,1.704,1.31     c1.109,1.604,0.715,3.805-0.892,4.915C424.832,219.966,420.247,221.542,418.331,221.542z" style="fill:#5B8039;"/></g><g><path d="M357.954,280.222c-1.152,0-2.286-0.57-2.96-1.607c-1.043-1.595-0.631-3.724,0.928-4.821     c7.732-5.428,16.404-11.528,25.18-17.711l-17.859,10.307c-1.68,0.977-3.845,0.4-4.821-1.292c-0.892-1.546-1.759-3.05,3.869-8.72     c-5.397,2.866-6.034,2.705-6.896,2.48c-0.928-0.236-1.722-0.849-2.201-1.667c-0.364-0.634-0.552-1.256-0.57-1.865     c-0.739,0.331-1.576,0.4-2.358,0.188c-0.904-0.243-1.681-0.834-2.147-1.646c-1.795-3.114,0.079-6.083,6.829-11.556     c-0.2-0.158-0.382-0.336-0.546-0.54c-1.207-1.483-1.013-3.651,0.431-4.9c0.8-0.694,1.625-1.419,2.443-2.149     c-1.128,0.315-2.365,0.055-3.28-0.752c-1.226-1.074-1.547-2.838-0.801-4.278c0.321-0.622,0.655-1.271,0.982-1.929     c-2.904,1.74-6.24,3.787-9.375,5.74c-1.195,0.755-2.735,0.716-3.9-0.103c-1.158-0.815-1.722-2.25-1.419-3.639l2.56-11.847     c0.134-1.058,0.733-2.041,1.723-2.617l0.023-0.018c1.207-0.704,2.724-0.631,3.852,0.194c1.14,0.822,1.68,2.238,1.376,3.605     l-0.867,4.048c11.675-7.135,12.42-6.944,13.833-6.592c0.934,0.23,1.765,0.853,2.238,1.683c0.448,0.77,0.83,1.434,0.297,3.454     c8.387-5.194,9.879-4.857,10.958-4.618c1.037,0.234,1.929,0.889,2.45,1.795c0.455,0.779,0.922,1.589,0.521,3.035     c2.141-0.719,3.063-0.534,3.578-0.431c1.255,0.255,2.286,0.979,2.898,2.05c1.135,1.956,0.801,3.563-1.485,5.895l17.162-9.906     c1.68-0.973,3.845-0.397,4.821,1.295c0.801,1.386,0.728,2.574,0.006,3.739c0.637,0.258,1.213,0.706,1.625,1.322     c1.037,1.577,0.661,3.693-0.873,4.806c-5.488,4.005-11.128,8.214-16.41,12.262l51.875-29.946c0.813-0.467,1.776-0.595,2.68-0.352     c0.904,0.245,1.68,0.836,2.147,1.649c1.576,2.738-0.916,4.621-1.844,5.333c-0.631,0.473-1.553,1.155-2.741,2.016     c-2.322,1.692-5.658,4.087-9.673,6.95c-0.552,0.394-1.115,0.8-1.691,1.209c16.598-9.436,17.495-9.208,18.878-8.851     c0.922,0.234,1.746,0.861,2.226,1.68c0.977,1.689,0.4,3.851-1.292,4.827c-0.454,0.264-0.945,0.416-1.449,0.461     c-6.355,2.553-57.636,32.902-89.109,51.82C359.209,280.058,358.578,280.222,357.954,280.222z M445.512,226.146     c0.193,0.343,0.437,0.628,0.691,0.858C445.93,226.761,445.699,226.476,445.512,226.146z" style="fill:#5B8039;"/></g><g><path d="M259.662,478.387c-0.26,0-0.484-0.055-0.739-0.115c-0.934-0.225-1.743-0.837-2.226-1.668     c-0.946-1.637-0.434-3.729,1.161-4.748l56.645-36.01c-27.326,16.246-48.236,28.436-48.539,28.611     c-1.644,0.958-3.729,0.449-4.755-1.146c-1.019-1.589-0.604-3.705,0.946-4.797c0.127-0.091,4.676-3.274,12.22-8.472     c-3.918,2.269-7.666,4.445-11.237,6.513c-0.813,0.468-1.777,0.601-2.687,0.353c-0.907-0.237-1.68-0.831-2.15-1.644     c-0.561-0.971-1.101-2.584-0.497-4.736c0.058-0.213,0.134-0.425,0.216-0.631c-1.68-0.709-2.626-1.831-3.148-2.735     c-0.473-0.818-0.6-1.807-0.345-2.717c0.46-1.655,0.46-1.655,19.309-12.099c0.455-0.254,0.91-0.509,1.37-0.764     c-4.147,1.625-7.016,2.184-8.78,1.765c-1.335-0.327-2.42-1.116-3.063-2.231c-0.479-0.837-0.601-1.838-0.328-2.76     c0.273-0.934,0.922-1.71,1.771-2.146c0.413-0.206,36.908-18.963,76.26-41.05c10.315-6.55,20.468-13.068,29.503-18.866     c33.105-21.273,49.376-31.511,57.915-36.016c1.268-1.02,2.39-1.959,3.384-2.833c-3.76,2.335-8.132,5.04-12.729,7.896     c-23.785,14.772-59.729,37.089-90.99,55.622c-57.617,34.179-61.59,33.185-64.21,32.523c-1.14-0.291-2.08-0.982-2.641-1.959     c-0.612-1.055-1.201-2.717-0.834-4.894c-0.667-0.334-1.225-0.813-1.631-1.413c-1.128-0.043-1.907-0.2-2.52-0.334     c-3.014-0.637-4.545-2.328-5.294-3.626c-0.961-1.662-0.418-3.784,1.216-4.785l10.073-6.155c-0.533-0.297-0.979-0.746-1.292-1.292     c-0.591-1.013-1.151-2.723-0.481-5.045c0.179-0.613,0.406-1.396,0.997-2.475c-1.477,0.801-2.295,1.243-2.353,1.279     c-1.674,0.903-3.76,0.328-4.725-1.315c-0.967-1.638-0.458-3.748,1.146-4.773c0.091-0.061,2.138-1.357,5.716-3.62     c-1.017-0.352-1.85-1.03-2.374-1.946c-0.498-0.861-0.683-1.85-0.553-2.869c-1.876,1.286-2.917,2.002-2.983,2.051     c-0.81,0.551-1.822,0.752-2.783,0.533c-0.961-0.219-1.789-0.831-2.28-1.68c-0.634-1.104-1.234-2.941-0.479-5.434     c0.088-0.291,0.194-0.601,0.325-0.922c-0.048-0.066-0.094-0.146-0.136-0.225c-0.488-0.837-0.604-1.844-0.325-2.771     c0.276-0.939,0.931-1.716,1.801-2.146c0.061-0.03,0.876-0.437,2.353-1.183c0.573-0.352,1.252-0.782,2.035-1.28     c0.021-0.023,0.048-0.048,0.072-0.066c-0.379-0.255-0.712-0.588-0.976-0.988c-1.067-1.589-0.667-3.735,0.895-4.846     c0.112-0.072,3.338-2.353,8.845-6.186c-2.317,0.892-3.696,1.092-4.585,0.867c-1.025-0.261-1.88-0.903-2.396-1.795     c-0.543-0.934-1.064-2.48-0.473-4.536c0.646-2.237,2.765-4.87,6.428-8.005c-0.134-0.315-0.225-0.637-0.267-0.964     c-1.589-0.491-2.447-1.48-2.896-2.257c-0.298-0.509-0.446-1.061-0.471-1.619l-0.612,0.346c-1.686,0.982-3.848,0.4-4.824-1.291     c-0.509-0.873-0.997-2.335-0.434-4.281c0.31-1.074,0.782-2.724,4.136-6.004c-0.066-0.194-0.115-0.395-0.146-0.595l-0.545,0.315     c-1.659,0.952-3.779,0.412-4.776-1.213c-1.003-1.631-0.524-3.766,1.08-4.809c3.396-2.214,6.829-4.47,10.258-6.731     c-5.07,2.504-7.369,3.001-8.788,2.649c-1.052-0.261-1.922-0.909-2.45-1.825c-1.88-3.25-0.479-6.004,11.244-13.905     c-0.079-0.121-0.158-0.243-0.23-0.37c-0.637-1.104-0.667-2.068-0.315-2.941c-3.594,1.468-4.615,1.219-5.494,1.013     c-1.104-0.267-2.014-0.928-2.563-1.88c-1.819-3.147,0.364-4.7,7.596-9.86c0.788-0.57,1.631-1.164,2.535-1.795     c-0.098-0.013-0.188-0.037-0.273-0.055c-1.261-0.291-2.298-1.037-2.917-2.11c-0.722-1.249-1.601-2.771,1.364-6.61     c-0.794,0.334-1.213,0.249-1.94,0.085c-0.973-0.206-1.828-0.831-2.322-1.692c-1.249-2.165-0.439-4.215,2.292-6.998     c-1.258,0.158-2.553-0.376-3.323-1.474c-1.055-1.498-0.788-3.551,0.606-4.73c3.529-2.98,7.145-6.094,10.589-9.114     c-0.528,0.039-0.85-0.042-1.122-0.1c-1.116-0.24-2.031-0.907-2.59-1.865c-0.673-1.167-0.648-2.214-0.218-3.199     c-0.049,0.024-0.085,0.052-0.134,0.079c-1.607,0.934-3.663,0.467-4.706-1.073c-1.043-1.538-0.709-3.624,0.752-4.764     c0.516-0.406,1.037-0.81,1.553-1.219c-0.425,0.021-0.71-0.042-1.007-0.121c-0.937-0.225-1.801-0.874-2.283-1.701     c-0.722-1.252-0.609-2.811,0.282-3.951c0.615-0.779,1.234-1.571,1.855-2.368c-5.913,3.365-6.289,3.266-7.38,2.978l0.898-3.42     l3.06-1.765c-1.014-1.75-3.103-2.125-4.458-1.468c1.198-0.582,12.399-7.123,19.167-11.107c0.813-0.476,1.783-0.609,2.687-0.367     c0.915,0.236,1.691,0.833,2.165,1.649c0.903,1.577,1.255,2.171-2.178,6.925c3.566-2.165,7.43-4.566,11.104-6.889     c0.807-0.51,1.801-0.673,2.729-0.44c0.935,0.23,1.74,0.828,2.214,1.665c0.782,1.337,1.449,2.499-1.426,5.943     c0.031,0.009,0.055,0.015,0.085,0.024c0.904,0.242,1.681,0.833,2.153,1.649c0.879,1.528,0.861,2.802-0.527,4.663     c0.012,0.003,0.018,0.003,0.03,0.009c0.97,0.209,1.807,0.822,2.311,1.683c0.988,1.722,1.746,3.035-5.167,10.024l10.406-6.007     c0.807-0.47,1.771-0.591,2.675-0.352c0.903,0.245,1.686,0.837,2.146,1.649c1.188,2.062,0.352,3.596-1.534,5.306     c0.503-0.012,0.97,0.033,1.395,0.125c1.371,0.297,2.492,1.098,3.159,2.253c0.922,1.604,0.455,3.653-1.079,4.693     c-9.558,6.474-19.854,13.948-27.313,19.897c6.683-4.196,14.433-9.473,19.757-13.096c16.617-11.319,18.369-12.32,20.789-11.759     c1.007,0.23,1.874,0.871,2.39,1.759c1.722,2.987,0.091,5.094-8.46,11.483c4.136-2.647,8.29-5.328,12.359-7.993     c1.613-1.058,3.784-0.622,4.857,0.979c1.086,1.604,0.679,3.778-0.91,4.876c-1.988,1.376-4.081,2.835-6.252,4.345     c0.212,0.016,0.431,0.049,0.631,0.092c1.122,0.239,2.05,0.912,2.613,1.886c0.752,1.31,0.752,2.541,0.115,3.784     c7.769-4.764,8.12-4.679,9.467-4.349c0.928,0.23,1.734,0.84,2.214,1.668c1.54,2.662,0.582,4.633-6.586,10.261l11.4-6.573     c0.813-0.467,1.777-0.595,2.675-0.352c0.909,0.242,1.68,0.836,2.146,1.643c0.151,0.273,0.279,0.546,0.37,0.837     c0.916-0.176,1.601-0.151,2.165-0.012c1.062,0.261,1.946,0.922,2.48,1.844c0.473,0.831,0.6,1.825,0.327,2.747     c-0.261,0.922-0.892,1.691-1.746,2.146c-1.844,0.971-3.699,1.953-5.543,2.936c0,0,0.006,0,0.018,0     c1.22,0,2.408,0.631,3.057,1.765c1.504,2.596-0.242,4.445-2.759,6.374l71.184-43.382c19.193-12.332,19.509-12.262,21.322-11.823     c0.939,0.228,1.771,0.846,2.256,1.686c0.285,0.491,0.437,1.025,0.467,1.562c2.165-1.489,3.372-2.323,3.438-2.374     c0.807-0.561,1.825-0.761,2.783-0.546c0.971,0.215,1.796,0.828,2.293,1.68c0.491,0.858,0.97,2.271,0.437,4.121     c-0.098,0.333-0.23,0.676-0.406,1.028c0.115,0.018,0.218,0.036,0.315,0.063c1.049,0.264,1.916,0.91,2.438,1.822     c0.952,1.641,0.431,3.742-1.177,4.751l-11.007,6.938c0.971,0.255,1.759,0.643,2.378,1.083c2.534-0.503,4.584-0.582,6.155-0.221     c2.419,0.564,3.669,1.956,4.281,3.026c0.485,0.846,0.606,1.853,0.321,2.786c-0.219,0.728-0.667,1.361-1.268,1.808     c0.771,0.566,1.279,1.216,1.602,1.776c0.509,0.886,0.637,1.935,0.363,2.941c-0.34,1.226-1.595,2.687-5.118,5.216     c0.327,0.363,0.576,0.728,0.771,1.066c0.461,0.801,0.909,2.117,0.418,3.863c-0.442,1.528-1.134,3.99-10.752,11.413     c0.055,0.468,0.024,0.946-0.115,1.413c-0.055,0.2-0.134,0.395-0.225,0.576c4.7-1.449,6.368-1.067,7.538-0.788     c1.935,0.442,2.941,1.577,3.444,2.444c0.959,1.661,0.413,3.783-1.219,4.784l-4.142,2.529c0.612,0.297,1.122,0.782,1.468,1.382     c0.576,0.995,0.709,2.178,0.394,3.33c-0.503,1.783-2.656,4.069-7.289,7.429c0.303,0.261,0.558,0.57,0.764,0.922     c0.644,1.104,0.782,2.419,0.395,3.711c-0.012,0.061-0.036,0.122-0.061,0.188c0.782-0.285,1.177-0.182,1.837-0.013     c0.922,0.23,1.723,0.831,2.202,1.662c0.643,1.116,1.249,2.972,0.503,5.519c-0.406,1.377-1.109,3.778-5.925,8.6     c0.497,0.945,0.934,2.443,0.382,4.421c-0.382,1.406-1.413,3.086-3.104,5.051c5.203-3.626,8.235-5.767,8.351-5.852     c0.807-0.57,1.825-0.776,2.789-0.57c0.971,0.219,1.808,0.831,2.311,1.692c0.559,0.977,0.697,2.141,0.376,3.28     c-0.491,1.765-2.638,3.997-7.514,7.398c0.279,0,0.528,0.067,0.843,0.152c0.91,0.236,1.681,0.83,2.147,1.644     c1.109,1.916,0.558,3.729-1.104,5.694c1.704,0.661,2.649,1.765,3.165,2.655c0.946,1.644,0.431,3.736-1.17,4.749l-9.533,6.07     c2.013-0.503,3.511-0.601,4.572-0.34c1.316,0.321,2.39,1.098,3.014,2.189c0.485,0.849,0.613,1.855,0.328,2.783     c-0.279,0.935-0.935,1.711-1.802,2.147c-0.412,0.2-41.492,20.746-81.517,43.457c-76.666,43.506-77.03,53.736-76.817,54.755     c0.618,0.389,7.101,3.057,48.993-22.201c0.024-0.225,0.062-0.437,0.122-0.661c0.818-3.038,5.513-6.482,28.647-19.934     c6.774-4.47,14.282-9.363,21.898-14.209c9.746-6.204,17.859-11.183,24.634-15.186c15.361-10.849,25.828-18.557,26.017-18.696     c0.813-0.594,1.831-0.813,2.813-0.612c0.988,0.206,1.844,0.825,2.341,1.692c0.267,0.479,0.54,1.128,0.612,1.94     c2.231-0.479,3.281-0.249,4.081-0.073c1.438,0.321,2.596,1.152,3.281,2.341c1.285,2.226,0.861,4.634-2.401,8.235     c0.072,0.007,0.14,0.024,0.2,0.037c1.134,0.272,2.074,0.964,2.632,1.94c0.807,1.389,0.57,3.153-0.582,4.281     c-3.093,3.038-6.695,6.932-7.902,8.666c-0.061,0.964-0.516,1.886-1.298,2.517c-0.267,0.249-0.576,0.449-0.891,0.595     c-1.656,0.752-3.639,0.091-4.549-1.486c-0.437-0.764-0.861-1.485-0.546-2.729c0.043-0.273,0.104-0.527,0.188-0.746     c-7.963,4.772-17.866,11.249-23.924,15.209c-15.543,10.152-15.622,10.128-17.581,9.661c-0.946-0.225-1.795-0.855-2.28-1.692     c-1.813-3.147,0.988-5.082,4.863-7.769c2.529-1.752,6.077-4.093,10.177-6.792c8.508-5.609,26.112-17.211,33.833-23.979     c-1.577,0.637-3.433,1.486-5.537,2.523c-7.61,5.876-20.85,13.99-40.995,25.7c-6.586,4.519-13.505,9.2-20.51,13.845     c-72.038,47.733-83.64,45.319-87.448,44.519c-2.856-0.594-4.306-2.201-5.021-3.444c-0.715-1.23-1.383-3.299-0.539-6.119     c0.109-0.357,0.23-0.77,0.424-1.261c-10.321,6.549-15.063,9.509-17.514,10.776l-0.485,0.309l-0.033-0.042     C260.633,478.247,260.093,478.387,259.662,478.387z M304.205,423.492c-0.733,0.437-1.455,0.867-2.158,1.298     c-6.017,3.614-11.068,6.78-15.307,9.539c1.898-0.952,3.936-2.007,6.131-3.159c11.395-6.61,24.84-14.391,38.928-22.541     c4.766-2.93,9.848-6.102,15.275-9.54c-0.4,0.225-0.794,0.443-1.188,0.655C333.356,407.016,319.476,414.917,304.205,423.492z      M344.412,391.375c-5.409,3.433-10.485,6.635-15.264,9.625c4.803-2.699,9.818-5.482,15.033-8.363     c8.775-5.094,17.563-10.279,25.998-15.361c13.912-8.393,24.797-15.27,33.3-20.91c-12.463,7.987-28.648,17.751-49.661,29.704     C350.671,387.858,347.535,389.623,344.412,391.375z M290.264,375.711c-0.321,0.23-0.655,0.461-0.971,0.686     c0.479-0.315,0.971-0.631,1.455-0.952C290.585,375.535,290.421,375.62,290.264,375.711z M413,308.312     c-14.081,7.738-34.027,19.448-62.312,37.139c-12.547,7.847-24.942,15.761-36.222,23.032L413,308.312z M423.734,310.034     l-29.206,17.835c7.149-4.002,14.032-7.901,20.219-11.498C417.967,314.115,420.975,311.992,423.734,310.034z M364.552,318.561     c-3.554,2.396-7.113,4.821-10.661,7.24c53.621-32.274,71.784-41.037,78.818-43.159c6.368-4.621,9.37-7.332,10.759-8.903     c-0.067,0.007-0.134,0.007-0.212,0.013c-10.268,6.386-28.939,16.974-62.572,35.779     C375.564,312.393,370.144,315.425,364.552,318.561z M325.552,288.729c-0.733,0.468-1.491,0.952-2.274,1.443l8.229-4.748     C329.506,286.528,327.523,287.626,325.552,288.729z M440.356,266.922c-0.121,0.115-0.249,0.243-0.376,0.358     c0.176-0.043,0.34-0.073,0.504-0.109c0.388-0.236,0.764-0.467,1.128-0.697C441.212,266.619,440.793,266.765,440.356,266.922z" style="fill:#5B8039;"/></g></g></g><g id="Layer_1"/></svg>